<?xml version="1.0" encoding="UTF-8"?>
<svg width="319.17307" height="313.17737" xmlns="http://www.w3.org/2000/svg" xmlns:xlink="http://www.w3.org/1999/xlink">
 <title>Dice 1</title>
 <defs>
  <linearGradient y2="1" x2="0.5" y1="0" x1="0.5" id="linearGradient6369" xlink:href="#linearGradient9462"/>
  <linearGradient id="linearGradient9462">
   <stop stop-color="#a40000" id="stop9464" offset="0"/>
   <stop stop-color="#ef2929" id="stop9466" offset="1"/>
  </linearGradient>
  <linearGradient y2="1" x2="0.5" y1="0" x1="0.5" id="linearGradient6371" xlink:href="#linearGradient9462"/>
  <linearGradient y2="1" x2="0.5" y1="0" x1="0.5" id="linearGradient6373" xlink:href="#linearGradient9462"/>
  <radialGradient r="25.809397" fy="94.287537" fx="103.59114" cy="94.287537" cx="103.59114" gradientTransform="matrix(1,0,0,0.84931512,0,14.207706)" gradientUnits="userSpaceOnUse" id="radialGradient6375" xlink:href="#linearGradient9498"/>
  <linearGradient id="linearGradient9498">
   <stop stop-color="#ffffff" id="stop9500" offset="0"/>
   <stop stop-color="#ffffff" stop-opacity="0" id="stop9502" offset="1"/>
  </linearGradient>
  <filter id="filter9518" color-interpolation-filters="sRGB">
   <feGaussianBlur id="feGaussianBlur9520" stdDeviation="0.713761"/>
  </filter>
  <radialGradient r="25.809397" fy="94.287537" fx="103.59114" cy="94.287537" cx="103.59114" gradientTransform="matrix(1,0,0,0.84931512,0,14.207706)" gradientUnits="userSpaceOnUse" id="radialGradient6377" xlink:href="#linearGradient9498"/>
  <linearGradient y2="1.011925" x2="0.5" y1="-0.011924" x1="0.5" id="linearGradient6299" xlink:href="#linearGradient9356"/>
  <linearGradient id="linearGradient9356">
   <stop stop-color="#f9f8f8" id="stop9358" offset="0"/>
   <stop stop-color="#ececec" offset="0.070067" id="stop9364"/>
   <stop stop-color="#e8e7e7" id="stop9366" offset="0.933283"/>
   <stop stop-color="#b4b3b4" id="stop9360" offset="1"/>
  </linearGradient>
  <linearGradient y2="1.216346" x2="0.305194" y1="0.814999" x1="0.29096" id="linearGradient6301" xlink:href="#linearGradient9376"/>
  <linearGradient id="linearGradient9376">
   <stop stop-color="#dad9d9" id="stop9378" offset="0"/>
   <stop stop-color="#dad9d9" offset="0.27966" id="stop9384"/>
   <stop stop-color="#000000" id="stop9380" offset="1"/>
  </linearGradient>
  <filter id="filter10343" color-interpolation-filters="sRGB">
   <feGaussianBlur id="feGaussianBlur10345" stdDeviation="0.742857"/>
  </filter>
 </defs>
 <metadata id="metadata6869">image/svg+xml</metadata>
 <g>
  <title>Layer 1</title>
  <g externalResourcesRequired="false" id="layer1">
   <rect opacity="0.722449" fill="#888a85" stroke="#888a85" stroke-width="0.442913" stroke-miterlimit="4" filter="url(#filter10343)" transform="matrix(4 0 0 4 219.998 -2751.09)" ry="9.285714" y="690.275918" x="-51.246223" height="74.285713" width="74.285713" id="rect10609"/>
   <rect fill="url(#linearGradient6299)" stroke="url(#linearGradient6301)" stroke-width="1.771654" stroke-miterlimit="4" id="rect10611" width="297.14285" height="297.14285" x="4.012953" y="5.017151" ry="37.142857"/>
   <path opacity="0.763265" fill="url(#radialGradient6377)" filter="url(#filter9518)" d="m183.869003,54.957001c0,26.558197 -39.622009,48.087997 -88.497902,48.087997c-48.875702,0 -88.497292,-21.5298 -88.497292,-48.087997c0,-26.558201 39.62159,-48.087851 88.497292,-48.087851c48.875893,0 88.497902,21.52965 88.497902,48.087851z" id="path10613"/>
   <path opacity="0.763265" fill="url(#radialGradient6375)" filter="url(#filter9518)" id="path10615" d="m294.782013,260.412994c0,21.285004 -16.465027,38.540009 -36.776001,38.540009c-20.311005,0 -36.776016,-17.255005 -36.776016,-38.540009c0,-21.283997 16.465012,-38.539001 36.776016,-38.539001c20.310974,0 36.776001,17.255005 36.776001,38.539001z"/>
   <path fill="url(#linearGradient6373)" d="m181.102997,152.589005c0,15.75 -12.76799,28.51799 -28.518997,28.51799c-15.75,0 -28.517998,-12.76799 -28.517998,-28.51799c0,-15.75 12.767998,-28.518005 28.517998,-28.518005c15.751007,0 28.518997,12.768005 28.518997,28.518005z" id="path10617"/>
   <path fill="#ffffff" id="path10631" d="m124.191002,155.733994c-0.097,0.959 -0.095001,1.869003 -0.095001,2.853012c0,15.750992 12.691002,28.535995 28.441002,28.535995c15.75,0 28.535995,-12.785004 28.535995,-28.535995c0,-0.984009 0.001999,-1.894012 -0.095001,-2.853012c-1.587997,14.246002 -13.770996,25.302002 -28.440994,25.302002c-14.669998,0 -26.757004,-11.056 -28.346001,-25.302002l0,0z"/>
  </g>
 </g>
</svg>